<svg width="18" height="17" viewBox="0 0 18 17" fill="none" xmlns="http://www.w3.org/2000/svg">
<path fill-rule="evenodd" clip-rule="evenodd" d="M8.16667 1.75C4.89898 1.75 2.25 4.39898 2.25 7.66667C2.25 10.9344 4.89898 13.5833 8.16667 13.5833C11.4344 13.5833 14.0833 10.9344 14.0833 7.66667C14.0833 4.39898 11.4344 1.75 8.16667 1.75ZM0.75 7.66667C0.75 3.57055 4.07055 0.25 8.16667 0.25C12.2628 0.25 15.5833 3.57055 15.5833 7.66667C15.5833 11.7628 12.2628 15.0833 8.16667 15.0833C4.07055 15.0833 0.75 11.7628 0.75 7.66667Z" fill="#1A1A1A"/>
<path fill-rule="evenodd" clip-rule="evenodd" d="M12.3447 11.8447C12.6376 11.5518 13.1124 11.5518 13.4053 11.8447L17.0303 15.4697C17.3232 15.7626 17.3232 16.2374 17.0303 16.5303C16.7374 16.8232 16.2626 16.8232 15.9697 16.5303L12.3447 12.9053C12.0518 12.6124 12.0518 12.1376 12.3447 11.8447Z" fill="#1A1A1A"/>
</svg>
