<svg width="24" height="24" viewBox="0 0 24 24" fill="none" xmlns="http://www.w3.org/2000/svg">
<path d="M9.66079 0.223062C9.40089 0.274928 9.17219 0.427803 9.02489 0.64813C8.8776 0.868456 8.82375 1.13823 8.87516 1.39822C8.92658 1.65821 9.07906 1.88718 9.29913 2.03485C9.5192 2.18253 9.78888 2.23685 10.049 2.18588C11.3395 1.93615 12.666 1.93615 13.9566 2.18588C14.2113 2.22467 14.4712 2.16368 14.682 2.01563C14.8929 1.86758 15.0385 1.64388 15.0886 1.39114C15.1386 1.13839 15.0892 0.876083 14.9506 0.65886C14.8121 0.441637 14.595 0.286248 14.3448 0.225063C12.7978 -0.0749859 11.2077 -0.0769866 9.66079 0.223062ZM18.6726 2.01781C18.4524 1.88405 18.189 1.84039 17.9374 1.89595C17.6859 1.95151 17.4654 2.10199 17.322 2.31606C17.1786 2.53012 17.1233 2.79125 17.1677 3.04505C17.212 3.29886 17.3526 3.52577 17.5601 3.67851C18.6521 4.41035 19.5902 5.34909 20.3213 6.44167C20.4709 6.65711 20.6992 6.80516 20.9569 6.85393C21.2146 6.90271 21.4812 6.8483 21.6992 6.70243C21.9173 6.55657 22.0693 6.33091 22.1225 6.07406C22.1758 5.81721 22.126 5.54972 21.984 5.3292C21.107 4.01976 19.982 2.89478 18.6726 2.01781ZM6.44345 3.67851C6.55892 3.60836 6.65899 3.51555 6.73761 3.40568C6.81624 3.2958 6.8718 3.17114 6.90093 3.03921C6.93007 2.90728 6.93217 2.77081 6.90713 2.63804C6.88209 2.50528 6.83041 2.37896 6.75521 2.26671C6.68002 2.15445 6.58286 2.0586 6.46961 1.98492C6.35636 1.91124 6.22936 1.86126 6.09627 1.838C5.96317 1.81474 5.82675 1.81868 5.69522 1.84959C5.56369 1.88049 5.43979 1.93772 5.33098 2.01781C4.02151 2.89474 2.89652 4.01972 2.01959 5.3292C1.94381 5.43831 1.89052 5.56141 1.86282 5.69133C1.83513 5.82126 1.83358 5.9554 1.85829 6.08592C1.88299 6.21645 1.93343 6.34075 2.00669 6.45157C2.07994 6.56239 2.17453 6.65751 2.28494 6.73138C2.39535 6.80525 2.51937 6.85639 2.64975 6.88182C2.78014 6.90725 2.91428 6.90646 3.04436 6.87949C3.17443 6.85252 3.29784 6.79992 3.40736 6.72475C3.51689 6.64958 3.61035 6.55334 3.68229 6.44167C4.41358 5.34984 5.35162 4.4098 6.44345 3.67851ZM23.7787 9.65901C23.7534 9.52994 23.7029 9.40713 23.6301 9.2976C23.5573 9.18807 23.4636 9.09396 23.3544 9.02068C23.2452 8.94739 23.1226 8.89636 22.9936 8.8705C22.8647 8.84464 22.7319 8.84447 22.6029 8.86998C22.4739 8.8955 22.3511 8.9462 22.2417 9.0192C22.1323 9.0922 22.0384 9.18605 21.9653 9.29539C21.8922 9.40473 21.8414 9.52741 21.8157 9.65641C21.7901 9.78541 21.7901 9.9182 21.8159 10.0472C22.066 11.3077 22.066 12.6923 21.8159 13.9528C21.7649 14.2129 21.8192 14.4826 21.9669 14.7026C22.1146 14.9227 22.3436 15.0752 22.6035 15.1266C22.8635 15.178 23.1333 15.1242 23.3536 14.9769C23.574 14.8296 23.7268 14.6009 23.7787 14.341C24.0788 12.7948 24.0788 11.2052 23.7787 9.65901ZM2.18967 10.0472C2.24114 9.78662 2.187 9.5163 2.03916 9.29566C1.89132 9.07503 1.66189 8.92216 1.40133 8.87068C1.27232 8.8452 1.13955 8.84537 1.01061 8.87119C0.881664 8.89702 0.759068 8.94799 0.64982 9.02119C0.429185 9.16903 0.276316 9.39846 0.224842 9.65901C-0.0749475 11.2053 -0.0749475 12.7947 0.224842 14.341C0.250134 14.47 0.300628 14.5929 0.373434 14.7024C0.44624 14.8119 0.539931 14.906 0.649143 14.9793C0.758355 15.0526 0.880947 15.1036 1.0099 15.1295C1.13886 15.1553 1.27165 15.1555 1.40067 15.13C1.5297 15.1045 1.65242 15.0538 1.76183 14.9808C1.87123 14.9078 1.96517 14.8139 2.03827 14.7046C2.11137 14.5953 2.16219 14.4726 2.18782 14.3436C2.21346 14.2146 2.2134 14.0818 2.18766 13.9528C1.93819 12.6629 1.94019 11.3371 2.18967 10.0472ZM21.984 18.6708C22.1177 18.4506 22.1614 18.1873 22.1058 17.9357C22.0503 17.6841 21.8998 17.4636 21.6857 17.3202C21.4716 17.1768 21.2105 17.1215 20.9567 17.1659C20.7029 17.2103 20.476 17.3508 20.3233 17.5583C19.5914 18.6503 18.6526 19.5884 17.5601 20.3195C17.3447 20.4691 17.1966 20.6974 17.1478 20.9551C17.0991 21.2129 17.1535 21.4794 17.2993 21.6975C17.4452 21.9155 17.6709 22.0675 17.9277 22.1207C18.1846 22.174 18.452 22.1242 18.6726 21.9822C19.982 21.1052 21.107 19.9803 21.984 18.6708ZM3.68229 17.5583C3.61214 17.4428 3.51933 17.3428 3.40946 17.2642C3.29958 17.1855 3.17492 17.13 3.04299 17.1008C2.91106 17.0717 2.77459 17.0696 2.64183 17.0946C2.50906 17.1197 2.38274 17.1714 2.27049 17.2466C2.15824 17.3217 2.06238 17.4189 1.9887 17.5322C1.91502 17.6454 1.86504 17.7724 1.84178 17.9055C1.81852 18.0386 1.82247 18.175 1.85337 18.3065C1.88427 18.4381 1.9415 18.562 2.02159 18.6708C2.89794 19.9801 4.02223 21.105 5.33098 21.9822C5.43979 22.0623 5.56369 22.1195 5.69522 22.1504C5.82675 22.1813 5.96317 22.1852 6.09627 22.162C6.22936 22.1387 6.35636 22.0887 6.46961 22.0151C6.58286 21.9414 6.68002 21.8455 6.75521 21.7333C6.83041 21.621 6.88209 21.4947 6.90713 21.3619C6.93217 21.2292 6.93007 21.0927 6.90093 20.9608C6.8718 20.8288 6.81624 20.7042 6.73761 20.5943C6.65899 20.4844 6.55892 20.3916 6.44345 20.3215C5.35146 19.5896 4.41342 18.6508 3.68229 17.5583ZM10.049 21.8141C9.79424 21.7753 9.53438 21.8363 9.32351 21.9844C9.11264 22.1324 8.96702 22.3561 8.91699 22.6088C8.86696 22.8616 8.91637 23.1239 9.05493 23.3411C9.19349 23.5583 9.41051 23.7137 9.66079 23.7749C11.207 24.0751 12.7965 24.0751 14.3428 23.7749C14.4768 23.7552 14.6054 23.7085 14.7208 23.6376C14.8363 23.5667 14.9361 23.4731 15.0143 23.3625C15.0924 23.2519 15.1473 23.1265 15.1756 22.9941C15.2039 22.8616 15.205 22.7247 15.1788 22.5918C15.1527 22.4589 15.0998 22.3327 15.0234 22.2209C14.9469 22.109 14.8486 22.0138 14.7343 21.9411C14.6201 21.8684 14.4922 21.8196 14.3585 21.7978C14.2248 21.776 14.0881 21.7815 13.9566 21.8141C12.666 22.0638 11.3395 22.0638 10.049 21.8141ZM16.8038 15.6015C16.8827 15.4964 16.9402 15.3768 16.973 15.2495C17.0057 15.1221 17.013 14.9896 16.9945 14.8595C16.976 14.7293 16.9321 14.6041 16.8652 14.4909C16.7983 14.3778 16.7098 14.2789 16.6047 14.1999C16.4996 14.121 16.38 14.0635 16.2527 14.0307C16.1253 13.998 15.9928 13.9907 15.8627 14.0092C15.7325 14.0277 15.6073 14.0716 15.4941 14.1385C15.381 14.2054 15.2821 14.2939 15.2031 14.399C14.4728 15.3734 13.3103 15.9997 12.0018 15.9997C11.3804 16.0003 10.7675 15.8559 10.2117 15.578C9.65599 15.3002 9.17274 14.8965 8.80043 14.399C8.64124 14.1867 8.40424 14.0464 8.14158 14.0089C7.87892 13.9714 7.61211 14.0397 7.39985 14.1989C7.18758 14.3581 7.04726 14.5951 7.00973 14.8578C6.97221 15.1204 7.04057 15.3872 7.19976 15.5995C7.75824 16.3458 8.48306 16.9516 9.31666 17.3688C10.1502 17.7859 11.0696 18.0029 12.0018 18.0025C13.9666 18.0025 15.7093 17.0581 16.8038 15.6015ZM10.0009 9.49895C10.0009 9.69601 9.96212 9.89115 9.88671 10.0732C9.81129 10.2553 9.70076 10.4207 9.56141 10.5601C9.42207 10.6994 9.25664 10.8099 9.07457 10.8853C8.89251 10.9608 8.69737 10.9996 8.50031 10.9996C8.30324 10.9996 8.10811 10.9608 7.92604 10.8853C7.74398 10.8099 7.57855 10.6994 7.4392 10.5601C7.29986 10.4207 7.18932 10.2553 7.11391 10.0732C7.03849 9.89115 6.99968 9.69601 6.99968 9.49895C6.99968 9.10095 7.15778 8.71926 7.4392 8.43784C7.72062 8.15642 8.10232 7.99832 8.50031 7.99832C8.8983 7.99832 9.27999 8.15642 9.56141 8.43784C9.84283 8.71926 10.0009 9.10095 10.0009 9.49895ZM15.5032 10.9996C15.9012 10.9996 16.2829 10.8415 16.5643 10.5601C16.8458 10.2786 17.0039 9.89694 17.0039 9.49895C17.0039 9.10095 16.8458 8.71926 16.5643 8.43784C16.2829 8.15642 15.9012 7.99832 15.5032 7.99832C15.1052 7.99832 14.7236 8.15642 14.4421 8.43784C14.1607 8.71926 14.0026 9.10095 14.0026 9.49895C14.0026 9.89694 14.1607 10.2786 14.4421 10.5601C14.7236 10.8415 15.1052 10.9996 15.5032 10.9996Z" fill="#55B76B"/>
</svg>
