<svg width="132" height="132" viewBox="0 0 132 132" fill="none" xmlns="http://www.w3.org/2000/svg">
<g filter="url(#filter0_d_78_706)">
<circle cx="66" cy="66" r="55" fill="white"/>
</g>
<g clip-path="url(#clip0_78_706)">
<path d="M31 91.9692V58.6147C31.4073 57.9627 32.0154 57.8093 32.7495 57.8129C38.5004 57.8294 44.2494 57.8221 50.0003 57.8221C50.2669 57.8221 50.5335 57.8221 50.8659 57.8221V57.013C50.8659 54.7138 50.8787 52.4127 50.8568 50.1135C50.8513 49.4743 51.054 48.9812 51.5106 48.5374C52.7195 47.3613 53.9212 46.1761 55.0827 44.9543C55.3292 44.6932 55.5027 44.2585 55.5137 43.8988C55.5612 42.3976 55.5082 40.8928 55.5447 39.3898C55.5594 38.7579 55.4169 38.2849 54.9238 37.8393C54.1641 37.1508 54.197 36.5372 54.9384 35.7902C56.2387 34.479 57.5463 33.1751 58.863 31.8803C59.1863 31.5607 59.5534 31.2904 59.9003 31C73.6428 31 87.3853 31 101.128 31V45.3543C100.752 45.9898 100.193 46.1816 99.4641 46.1798C92.6888 46.1615 85.9116 46.1688 79.1362 46.1688H78.4148L78.3162 46.3386C79.0997 47.0892 79.9306 47.796 80.6428 48.6068C80.9697 48.9812 81.2071 49.5492 81.2364 50.0459C81.3167 51.4083 81.2638 52.7762 81.2638 54.144C81.2638 55.3457 81.2638 56.5455 81.2638 57.8202H82.1312C87.8803 57.8202 93.6311 57.8276 99.3801 57.8111C100.114 57.8093 100.722 57.9627 101.13 58.6128V91.9674C100.889 92.2669 100.673 92.592 100.403 92.8622C97.9246 95.3478 95.4318 97.8187 92.9572 100.312C92.4934 100.779 91.993 100.998 91.3227 100.998C74.4829 100.987 57.6449 100.987 40.8051 100.998C40.1367 100.998 39.6363 100.779 39.1706 100.312C36.7308 97.8516 34.269 95.4135 31.8236 92.959C31.5223 92.6559 31.2739 92.2998 31 91.9674L31 91.9692ZM33.3723 60.1925C33.3577 60.3825 33.3358 60.5359 33.3339 60.6893C33.3339 70.6916 33.3285 80.6921 33.3486 90.6945C33.3486 90.9867 33.5312 91.3465 33.743 91.562C35.9528 93.8009 38.179 96.0271 40.4271 98.2278C40.6681 98.4633 41.0864 98.6441 41.4224 98.6441C57.8586 98.6642 74.293 98.6642 90.7292 98.6441C91.047 98.6441 91.4414 98.4798 91.6697 98.257C93.9178 96.0545 96.1477 93.832 98.3501 91.5857C98.5985 91.3319 98.7756 90.8863 98.7775 90.5301C98.7994 80.6648 98.7957 70.7994 98.7957 60.9358C98.7957 60.6948 98.7957 60.4537 98.7957 60.1907H33.3723V60.1925ZM98.7738 33.3759H81.3039V43.7892H98.7738V33.3759ZM78.875 43.8221V33.3285H78.0021C72.5964 33.3285 67.1925 33.3431 61.7869 33.312C61.0217 33.3065 60.4665 33.4892 59.9423 34.0644C59.0767 35.0141 58.1216 35.8834 57.2596 36.7308C58.7115 38.1753 60.0775 39.5359 61.4326 40.8836C61.9823 40.3431 62.5794 39.7587 63.2972 39.0556C62.7621 38.5734 62.1685 38.1589 61.7467 37.611C61.5166 37.3115 61.4344 36.7362 61.5549 36.3765C61.6554 36.0751 62.1448 35.7373 62.4717 35.7245C62.8406 35.7117 63.2972 35.9674 63.5857 36.2432C64.8403 37.4357 66.0347 38.6921 67.2875 39.8865C67.534 40.1221 67.9431 40.2992 68.281 40.3047C70.5382 40.3412 72.7955 40.3175 75.0545 40.3266C76.1558 40.3303 76.5794 40.7649 76.5904 41.8643C76.5977 42.5127 76.5904 43.161 76.5904 43.8239H78.8696L78.875 43.8221ZM57.9097 50.8531V57.7764H74.209V50.8531H57.9097ZM55.4827 57.7892V47.7741C54.754 48.5411 54.1385 49.1456 53.5815 49.7994C53.3825 50.0313 53.2199 50.3801 53.2163 50.6796C53.1834 52.6374 53.1998 54.5951 53.1998 56.5528C53.1998 56.9546 53.1998 57.3582 53.1998 57.7892H55.4845H55.4827ZM78.9298 57.7892C78.9298 55.2799 78.9298 52.8474 78.9262 50.4148C78.9262 50.3071 78.9097 50.1665 78.8422 50.0989C78.1409 49.3775 77.4286 48.6671 76.6361 47.8727V57.791H78.928L78.9298 57.7892ZM60.209 48.4607C60.209 46.7422 60.209 45.0639 60.2053 43.3874C60.2053 43.2797 60.1889 43.1391 60.1213 43.0697C59.4219 42.3501 58.7096 41.6415 57.9097 40.838V48.4607H60.209ZM62.5521 48.448H64.833V40.796C64.0331 41.6288 63.372 42.3081 62.7274 43.0039C62.6306 43.108 62.5612 43.2833 62.5612 43.4258C62.5502 45.0804 62.5539 46.7368 62.5539 48.448H62.5521ZM67.24 48.4644H69.5338V42.6588C68.8617 42.6588 68.2299 42.6387 67.6016 42.6752C67.4738 42.6825 67.2565 42.9071 67.2546 43.0331C67.2309 44.8247 67.2382 46.6181 67.2382 48.4626L67.24 48.4644ZM71.9645 42.7026V48.4425H74.2181V42.7026H71.9645Z" fill="black"/>
<path d="M98.7736 33.376V43.7892H81.3037V33.376H98.7736Z" fill="#22B573"/>
<path d="M78.8751 43.8221H76.5959C76.5959 43.1592 76.6014 42.5109 76.5959 41.8625C76.5832 40.7631 76.1595 40.3303 75.0601 40.3248C72.8028 40.3157 70.5438 40.3395 68.2865 40.3029C67.9487 40.2975 67.5396 40.1185 67.293 39.8847C66.0402 38.6904 64.8477 37.4339 63.5913 36.2414C63.3027 35.9674 62.8461 35.7099 62.4772 35.7227C62.1503 35.7337 61.6609 36.0733 61.5605 36.3747C61.4399 36.7344 61.5203 37.3079 61.7522 37.6092C62.1723 38.1571 62.7676 38.5716 63.3027 39.0538C62.585 39.7569 61.9896 40.3431 61.4381 40.8818C60.083 39.5341 58.717 38.1754 57.2651 36.729C58.1271 35.8816 59.0822 35.0123 59.9479 34.0626C60.472 33.4874 61.0254 33.3066 61.7924 33.3102C67.1963 33.3431 72.6019 33.3267 78.0076 33.3267H78.8806V43.8203L78.8751 43.8221Z" fill="#22B573"/>
<path d="M60.207 48.4589H57.9077V40.8362C58.7076 41.6397 59.4198 42.3483 60.1193 43.0679C60.1869 43.1373 60.2033 43.2779 60.2033 43.3856C60.2088 45.0621 60.207 46.7404 60.207 48.4589Z" fill="#22B573"/>
<path d="M62.5521 48.448C62.5521 46.7368 62.5485 45.0804 62.5594 43.4258C62.5594 43.2834 62.6288 43.108 62.7256 43.004C63.3703 42.31 64.0314 41.6306 64.8313 40.796V48.448H62.5503H62.5521Z" fill="#22B573"/>
<path d="M67.2398 48.4625C67.2398 46.618 67.2325 44.8265 67.2563 43.0331C67.2563 42.9071 67.4754 42.6824 67.6033 42.6751C68.2315 42.6368 68.8634 42.6587 69.5354 42.6587V48.4643H67.2417L67.2398 48.4625Z" fill="#22B573"/>
<path d="M71.9644 42.7008H74.2179V48.4407H71.9644V42.7008Z" fill="#22B573"/>
<path d="M77.2682 71.5628C77.5768 71.3491 77.8215 71.1866 78.0571 71.0131C78.5118 70.6752 78.9885 70.5255 79.5144 70.8414C80.0422 71.161 80.1226 71.6596 80.0367 72.2129C79.9272 72.9105 79.8432 73.6136 79.6806 74.2985C79.5437 74.8774 79.6697 75.334 79.9966 75.8252C81.4703 78.0441 82.9094 80.2867 84.3595 82.5239C84.8909 83.3439 84.8818 83.7 84.3065 84.5054C82.5314 86.9891 80.7435 89.4636 78.9866 91.9601C78.5483 92.5829 78.0224 92.8404 77.2608 92.8294C74.9799 92.7984 72.6971 92.8184 70.4142 92.8184C70.1677 92.8184 69.9212 92.8184 69.5723 92.8184C69.5723 93.2403 69.66 93.6256 69.5504 93.9434C69.4116 94.3415 69.187 94.7926 68.8583 95.0209C68.4401 95.3113 67.936 95.1359 67.547 94.7798C67.4466 94.6867 67.3315 94.6027 67.2567 94.4913C66.2541 93.0175 64.8606 92.6943 63.1348 92.7801C60.3809 92.9171 57.6141 92.7983 54.8528 92.8276C54.0858 92.8367 53.5708 92.5609 53.1361 91.9418C51.3921 89.4636 49.617 87.0092 47.8546 84.5437C47.2337 83.6744 47.2319 83.3731 47.8272 82.4508C49.4343 79.9653 51.0433 77.4798 52.6942 74.9267C52.3289 74.6546 51.9783 74.3807 51.613 74.1286C51.1327 73.7963 50.7766 73.3945 50.9099 72.7681C51.0487 72.1106 51.5564 71.8805 52.1609 71.7856C52.7234 71.6979 53.2841 71.5299 53.8465 71.5189C54.7505 71.5007 55.2491 71.0441 55.7075 70.3081C57.163 67.9687 58.7062 65.6841 60.1836 63.3574C60.5836 62.7274 61.0876 62.4735 61.8236 62.479C64.6524 62.5009 67.4831 62.5028 70.3138 62.479C71.0845 62.4717 71.5776 62.7657 71.9885 63.4159C73.5718 65.9178 75.1972 68.3924 76.8079 70.8761C76.9431 71.0843 77.0855 71.2888 77.2718 71.5646L77.2682 71.5628ZM69.5632 85.8221C70.6206 85.8221 71.5977 85.6943 72.5272 85.8495C74.3078 86.149 75.3908 85.4258 76.1158 83.8753C76.2765 83.532 76.2911 83.3329 76.0939 83.0298C75.4364 82.018 74.7863 81.0008 74.1781 79.958C73.9115 79.4996 73.5901 79.2787 73.0568 79.2257C72.2642 79.1472 71.4808 78.9755 70.6955 78.8385C70.1604 78.7454 69.7477 78.4897 69.6253 77.9272C69.5066 77.3775 69.7184 76.9502 70.175 76.6324C70.6005 76.3347 71.0206 76.0279 71.4169 75.7449C71.4041 75.6335 71.4132 75.5823 71.3913 75.5476C70.6005 74.2693 69.8152 72.9872 69.0099 71.7198C68.5369 70.9765 68.1826 69.9703 67.4959 69.6069C66.7983 69.238 65.7573 69.4808 64.8698 69.5247C64.6104 69.5375 64.2689 69.7256 64.1283 69.9411C63.3193 71.1793 62.6198 72.4941 61.7633 73.6958C61.0127 74.7496 60.6822 75.7923 61.1059 77.0525C61.2556 77.4999 61.2611 77.993 61.3488 78.4623C61.4492 79.0047 61.3268 79.4704 60.8557 79.7809C60.3827 80.0932 59.906 80.0219 59.4513 79.7078C59.1427 79.4941 58.8285 79.2841 58.4925 79.054C57.9574 79.9197 57.4625 80.7086 56.9804 81.5085C56.5841 82.1678 55.8883 82.8471 55.9084 83.4991C55.9285 84.1584 56.6389 84.8158 57.1009 85.4349C57.247 85.6303 57.5611 85.8057 57.8004 85.8075C60.2421 85.8349 62.6856 85.833 65.1273 85.8093C65.3866 85.8075 65.6971 85.6723 65.8943 85.497C66.4714 84.9802 66.9572 84.3538 67.5708 83.8917C67.8831 83.6562 68.4583 83.5082 68.7925 83.6379C69.1286 83.7676 69.3934 84.2588 69.5413 84.6478C69.6618 84.9656 69.565 85.3655 69.565 85.8257L69.5632 85.8221ZM55.0738 73.6721C55.6417 74.4154 55.4189 75.0436 54.9825 75.7047C53.39 78.1172 51.8377 80.5552 50.2507 82.9713C50.0133 83.3311 50.0114 83.5758 50.2671 83.9283C51.7427 85.9518 53.1982 87.9898 54.641 90.0371C54.8784 90.3749 55.1359 90.4973 55.5431 90.49C56.8197 90.4662 58.098 90.4808 59.3746 90.4808H63.1914C62.3824 89.6718 62.4262 88.9249 63.2079 88.1506C61.0511 88.1506 59.066 88.1286 57.0827 88.1615C56.3595 88.1743 55.8828 87.9077 55.5066 87.305C54.8912 86.3207 54.2465 85.3546 53.5763 84.4067C53.1325 83.7822 53.1489 83.227 53.5562 82.586C54.6793 80.82 55.7769 79.0358 56.8562 77.2424C57.2434 76.5977 57.6634 76.0772 58.5984 76.2434C58.4213 75.1824 58.2588 74.209 58.0871 73.1753C57.0607 73.3434 56.102 73.5004 55.0738 73.6702V73.6721ZM58.1839 70.7428C59.5335 70.6204 59.7198 70.7044 60.2914 71.6614C61.0328 70.4634 61.7871 69.3 62.481 68.102C62.8664 67.4354 63.3649 67.1305 64.1411 67.1542C65.372 67.1926 66.6047 67.1907 67.8338 67.1542C68.6026 67.1305 69.1048 67.4135 69.5066 68.0783C70.8507 70.2953 72.235 72.4905 73.6211 74.682C74.0814 75.4088 74.569 76.1083 73.7855 76.9849C74.852 77.162 75.7889 77.3154 76.7842 77.4816C76.9595 76.4352 77.1257 75.4399 77.3065 74.3606C76.4482 74.503 76.0409 74.0118 75.6647 73.4274C73.9298 70.7282 72.1894 68.0326 70.4234 65.3535C70.2645 65.1125 69.9193 64.8513 69.6545 64.8477C67.2603 64.8093 64.8661 64.8203 62.4719 64.8349C62.2728 64.8349 61.9843 64.9189 61.8893 65.065C60.6566 66.9186 59.4513 68.7887 58.1821 70.7428H58.1839ZM76.9376 79.9799C77.5129 80.904 78.048 81.7916 78.6123 82.659C78.9958 83.2489 78.9848 83.7822 78.5812 84.3629C77.8927 85.3527 77.2261 86.359 76.576 87.3744C76.2235 87.9259 75.7688 88.1706 75.1022 88.1615C73.0495 88.1341 70.9968 88.1378 68.9459 88.1597C68.2794 88.167 67.6749 88.1012 67.3315 87.5315C66.6832 88.1414 66.0587 88.7277 65.4633 89.2883C66.0733 89.9147 66.6723 90.5283 67.3133 91.1876C67.6877 90.5265 68.3049 90.4754 68.9697 90.479C71.5009 90.4918 74.032 90.4735 76.5632 90.4955C77.0033 90.4991 77.2645 90.3603 77.5147 90.0042C78.8095 88.1597 80.1281 86.3334 81.4393 84.4999C81.9348 83.8071 81.9464 83.0973 81.474 82.3705C80.6704 81.1359 79.8669 79.9032 79.0323 78.6212C78.6342 79.8539 78.5447 79.9124 76.9376 79.9836V79.9799Z" fill="#22B573"/>
</g>
<defs>
<filter id="filter0_d_78_706" x="0" y="0" width="132" height="132" filterUnits="userSpaceOnUse" color-interpolation-filters="sRGB">
<feFlood flood-opacity="0" result="BackgroundImageFix"/>
<feColorMatrix in="SourceAlpha" type="matrix" values="0 0 0 0 0 0 0 0 0 0 0 0 0 0 0 0 0 0 127 0" result="hardAlpha"/>
<feMorphology radius="1" operator="dilate" in="SourceAlpha" result="effect1_dropShadow_78_706"/>
<feOffset/>
<feGaussianBlur stdDeviation="5"/>
<feComposite in2="hardAlpha" operator="out"/>
<feColorMatrix type="matrix" values="0 0 0 0 0.545098 0 0 0 0 0.823529 0 0 0 0 0.627451 0 0 0 0.4 0"/>
<feBlend mode="normal" in2="BackgroundImageFix" result="effect1_dropShadow_78_706"/>
<feBlend mode="normal" in="SourceGraphic" in2="effect1_dropShadow_78_706" result="shape"/>
</filter>
<clipPath id="clip0_78_706">
<rect width="70.1278" height="70" fill="white" transform="translate(31 31)"/>
</clipPath>
</defs>
</svg>
