<svg width="132" height="132" viewBox="0 0 132 132" fill="none" xmlns="http://www.w3.org/2000/svg">
<g filter="url(#filter0_d_78_690)">
<circle cx="66" cy="66" r="55" fill="white"/>
</g>
<g clip-path="url(#clip0_78_690)">
<path d="M30 65.597C30.1984 64.4872 30.2842 63.3407 30.6174 62.2726C31.3229 60.004 32.1314 57.7648 32.9496 55.533C33.7826 53.2546 34.6768 51.0007 35.5465 48.7346C35.6273 48.5239 35.718 48.3181 35.8233 48.0658C36.5926 48.3598 37.3202 48.6366 38.1091 48.9379C38.0184 49.2074 37.9498 49.4426 37.8641 49.6705C36.4358 53.453 34.9536 57.2136 33.5915 61.0182C31.955 65.5897 32.1975 70.1464 33.9884 74.637C34.0986 74.9139 34.2064 75.1931 34.3387 75.5337C33.5817 75.8497 32.8467 76.1584 32.0579 76.4891C31.22 74.5439 30.5782 72.6061 30.2817 70.5629C30.1886 69.9284 30.0931 69.2914 30 68.6545C30 67.6353 30 66.6162 30 65.597Z" fill="black"/>
<path d="M101.152 94.7847H98.6943V83.5276H101.152V94.7847Z" fill="black"/>
<path d="M101.151 99.7873H98.6499C98.6499 99.3439 98.6499 98.9397 98.6499 98.533C98.6499 98.1263 98.6499 97.7588 98.6499 97.2836H101.151V99.7849V99.7873Z" fill="black"/>
<path d="M57.3967 81.5408V84.706C58.4722 85.1445 58.629 85.3773 58.629 86.5287C58.629 89.5396 58.629 92.5505 58.629 95.5613C58.629 96.6834 58.455 96.9357 57.3746 97.3473V101.002H54.8978V97.3252H42.4035V100.99H39.8924V97.3277C38.7557 97.1244 38.594 96.3355 38.6038 95.3629C38.6356 92.4696 38.616 89.5739 38.616 86.6781C38.616 85.2254 38.8488 84.9461 40.3113 84.7084C39.9463 83.824 39.5837 82.9543 39.226 82.0797C38.2339 79.6642 37.1878 77.2682 36.2642 74.8257C34.2896 69.5952 34.4439 64.3623 36.421 59.1613C38.7704 52.9827 41.1296 46.8066 43.4888 40.6305C44.5447 37.8621 46.7251 36.767 49.5743 37.5191C49.8144 37.5828 50.1867 37.4432 50.3925 37.2717C52.3769 35.6131 54.5279 34.2363 56.9043 33.2098C62.2695 30.8874 67.7964 30.3974 73.4752 31.7326C77.4831 32.6758 81.0673 34.4911 84.2007 37.1664C84.6294 37.5314 84.9822 37.6245 85.5457 37.453C87.677 36.7989 90.0142 37.7788 90.8888 39.8269C92.0598 42.5659 93.0765 45.3734 94.1373 48.1589C95.6685 52.1767 97.2438 56.1798 98.6818 60.2294C100.544 65.4746 100.237 70.6879 98.1331 75.813C96.9228 78.7626 95.693 81.7025 94.4436 84.7158C94.6371 84.7427 94.7816 84.7623 94.9262 84.7819C95.7077 84.8971 96.134 85.3283 96.1364 86.1343C96.1511 89.3999 96.1462 92.6656 96.1389 95.9313C96.1389 96.7275 95.6611 97.1464 94.8968 97.3203V100.985H92.4249V97.3424H79.9085V100.998H77.4292V97.3277C76.3048 97.1244 76.1161 96.3722 76.1259 95.4144C76.1553 92.4745 76.1553 89.5322 76.1259 86.5899C76.1161 85.6492 76.3415 84.9412 77.3705 84.7427V81.5481C70.7191 84.1474 64.0848 84.1646 57.3942 81.5408H57.3967ZM48.832 51.5887C52.3181 51.988 53.6264 53.4629 53.6264 56.8804C53.6264 59.59 53.6484 62.2995 53.6166 65.0091C53.6019 66.3565 53.8419 67.6206 54.425 68.8382C55.8337 71.7805 56.7671 74.8673 57.1223 78.1183C57.1689 78.5372 57.3257 78.7994 57.7617 78.9831C64.1926 81.7147 70.6113 81.7123 77.0348 78.966C77.4292 78.7969 77.5983 78.5642 77.6424 78.1551C77.9976 74.8575 78.9555 71.7315 80.3838 68.7451C80.935 67.5937 81.1604 66.3932 81.1481 65.1169C81.1212 62.1525 81.1334 59.1882 81.1432 56.2239C81.1481 54.313 81.9664 52.8577 83.7181 52.0542C84.3673 51.7578 85.1218 51.6965 85.8813 51.5152C85.8151 51.3388 85.7441 51.1257 85.6583 50.9199C84.6833 48.6195 83.696 46.3264 82.7406 44.0211C82.5127 43.4723 82.2506 42.8721 82.2677 42.3037C82.2947 41.2944 82.525 40.2899 82.6867 39.1728C73.0538 30.7085 59.0945 32.4945 51.8943 39.4178C52.6195 40.6648 52.7885 41.9803 52.2961 43.3474C52.0462 44.0431 51.74 44.7193 51.4533 45.4004C50.591 47.4411 49.7262 49.4794 48.832 51.5912V51.5887ZM79.9453 84.7378C80.0457 84.7501 80.1339 84.7721 80.2196 84.7721C83.9018 84.7721 87.5839 84.7648 91.2661 84.7868C91.6973 84.7868 91.8124 84.5615 91.9398 84.2479C93.2652 81.0434 94.6151 77.8488 95.9159 74.6346C97.6823 70.2689 98.0155 65.7881 96.4108 61.3416C93.9854 54.6241 91.3812 47.9703 88.8432 41.2944C88.3434 39.9764 87.1381 39.4276 85.9572 39.9274C84.8058 40.4124 84.4187 41.5737 84.9797 42.9039C86.3566 46.1623 87.7285 49.423 89.1225 52.674C89.6516 53.9063 89.904 55.1778 89.8991 56.5178C89.8868 61.0795 89.8942 65.6436 89.8942 70.2052V70.9769H87.3929C87.3929 70.6854 87.3929 70.4355 87.3929 70.1832C87.3929 65.575 87.388 60.9644 87.3977 56.3562C87.3977 55.6187 87.2312 54.9671 86.6138 54.5237C86.0283 54.1023 85.3668 54.0263 84.7078 54.3448C83.9655 54.7049 83.6421 55.337 83.6421 56.1479C83.6421 59.1809 83.6274 62.2162 83.647 65.2492C83.6568 66.8048 83.3873 68.287 82.6916 69.6834C80.3421 74.4117 79.6145 79.4412 79.9428 84.7378H79.9453ZM54.8782 84.7746C54.8782 83.8534 54.8684 83.0425 54.8782 82.2316C54.9346 77.9493 54.082 73.8604 52.2128 70.0019C51.4386 68.4046 51.0907 66.7436 51.1128 64.9699C51.152 62.0741 51.1299 59.1784 51.1201 56.2827C51.1152 54.9303 50.221 54.0606 49.0059 54.1954C47.999 54.3056 47.3767 55.1092 47.3743 56.3366C47.3694 60.9693 47.3743 65.6019 47.3743 70.2346C47.3743 70.4796 47.3743 70.7246 47.3743 70.9598H44.873C44.873 70.6511 44.873 70.3963 44.873 70.144C44.873 65.7195 44.8901 61.2951 44.8632 56.8706C44.8534 55.2905 45.1474 53.8083 45.7794 52.3555C47.1685 49.1781 48.4963 45.9736 49.8536 42.7815C50.1867 41.9975 50.1867 41.2429 49.6404 40.557C49.1407 39.9274 48.462 39.6579 47.6707 39.773C46.7251 39.9127 46.1935 40.5374 45.8652 41.4022C43.4864 47.6714 41.0928 53.9332 38.7116 60.2024C36.9746 64.7788 36.8546 69.3894 38.6185 73.9682C39.9659 77.4617 41.4677 80.8965 42.8739 84.3679C43.0405 84.7746 43.2953 84.777 43.6309 84.7746C47.1734 84.7697 50.7184 84.7721 54.2609 84.7721C54.4397 84.7721 54.6185 84.7721 54.8733 84.7721L54.8782 84.7746ZM56.0787 94.7504V87.3322H41.1565V94.7504H56.0787ZM93.6155 87.3274H78.6958V94.7431H93.6155V87.3274Z" fill="black"/>
<path d="M37.2247 44.3101C38.0062 44.6065 38.7314 44.8833 39.5472 45.192C39.3071 45.8339 39.0793 46.4439 38.8245 47.1225C38.043 46.8261 37.3007 46.5419 36.4897 46.2357C36.7396 45.5815 36.9724 44.9691 37.2247 44.3101Z" fill="black"/>
<path d="M56.0789 94.7503H41.1567V87.3322H56.0789V94.7503Z" fill="#22B573"/>
<path d="M93.6155 87.3273V94.743H78.6958V87.3273H93.6155Z" fill="#22B573"/>
<path d="M67.1132 67.4294V70.9009C66.3293 70.9695 65.56 71.0357 64.6609 71.114C64.6315 70.2786 64.5164 69.4751 64.5972 68.6936C64.7197 67.5152 64.4355 66.8586 63.2082 66.3393C60.6677 65.2613 59.5309 62.9903 59.0605 60.3959C58.0561 54.8494 60.7828 50.3661 65.2268 47.8256C69.1589 45.5791 73.3506 45.6109 77.5962 46.8285C78.5737 47.1078 78.9216 47.9261 78.3802 48.7713C77.2581 50.5229 77.0254 52.4632 76.9299 54.4721C76.8343 56.4785 76.8172 58.5168 76.4227 60.4718C75.5187 64.9673 72.2555 67.6548 67.542 67.427C67.4293 67.4221 67.3141 67.427 67.1132 67.427V67.4294ZM75.5163 48.8178C74.823 48.7223 74.2326 48.6096 73.6372 48.5606C70.3765 48.2887 67.3827 48.9526 64.8275 51.1182C61.7039 53.7666 60.5966 57.4364 61.8509 61.1553C62.336 62.5959 63.1665 63.7694 64.7614 64.323C65.1999 60.3861 66.1382 56.6427 67.7502 53.0193C68.5195 53.3599 69.2471 53.6808 70.0139 54.0213C68.5219 57.5344 67.564 61.1039 67.2406 64.8742C68.6714 65.0041 69.9967 64.8669 71.2192 64.1344C73.1399 62.9854 73.9288 61.1431 74.1713 59.0534C74.3502 57.5197 74.3575 55.9616 74.3942 54.4133C74.4408 52.5245 74.8009 50.7018 75.5114 48.8178H75.5163Z" fill="#22B573"/>
<path d="M76.6798 38.134C76.3173 38.8788 75.9767 39.5819 75.5897 40.3757C71.0329 38.2712 66.3512 37.9307 61.5274 39.4129C61.3069 38.7489 61.1085 38.1634 60.9174 37.5755C60.8684 37.426 60.8439 37.2692 60.7949 37.0463C66.2459 35.351 71.5057 35.7307 76.6823 38.1316L76.6798 38.134Z" fill="black"/>
<path d="M56.8213 41.7231C56.3435 41.0224 55.9026 40.3756 55.4126 39.6554C56.2945 39.1409 57.1398 38.646 58.0658 38.1046C58.4504 38.8935 58.8008 39.6088 59.1633 40.3511C58.3818 40.8093 57.6322 41.2478 56.8213 41.7231Z" fill="black"/>
</g>
<defs>
<filter id="filter0_d_78_690" x="0" y="0" width="132" height="132" filterUnits="userSpaceOnUse" color-interpolation-filters="sRGB">
<feFlood flood-opacity="0" result="BackgroundImageFix"/>
<feColorMatrix in="SourceAlpha" type="matrix" values="0 0 0 0 0 0 0 0 0 0 0 0 0 0 0 0 0 0 127 0" result="hardAlpha"/>
<feMorphology radius="1" operator="dilate" in="SourceAlpha" result="effect1_dropShadow_78_690"/>
<feOffset/>
<feGaussianBlur stdDeviation="5"/>
<feComposite in2="hardAlpha" operator="out"/>
<feColorMatrix type="matrix" values="0 0 0 0 0.545098 0 0 0 0 0.823529 0 0 0 0 0.627451 0 0 0 0.4 0"/>
<feBlend mode="normal" in2="BackgroundImageFix" result="effect1_dropShadow_78_690"/>
<feBlend mode="normal" in="SourceGraphic" in2="effect1_dropShadow_78_690" result="shape"/>
</filter>
<clipPath id="clip0_78_690">
<rect width="71.1514" height="70" fill="white" transform="translate(30 31)"/>
</clipPath>
</defs>
</svg>
