<svg width="93" height="84" viewBox="0 0 93 84" fill="none" xmlns="http://www.w3.org/2000/svg">
<path d="M52.3024 82.9422C54.7507 82.1761 56.6628 81.1871 58.2217 80.1016C58.2217 80.1016 58.1931 80.1353 58.1787 80.1522C58.4011 79.9927 58.561 79.8383 58.7834 79.6788C59.0798 79.4661 59.3905 79.2365 59.6532 78.9952C59.8873 78.7876 60.0877 78.5514 60.3217 78.3438C60.8134 77.8326 61.2713 77.2927 61.6525 76.7748C61.7956 76.6061 61.9387 76.4374 62.0338 76.2569C62.229 75.9584 62.3618 75.6649 62.5259 75.3689C62.6352 75.1716 62.7589 74.9574 62.837 74.7626C62.9699 74.4692 63.0716 74.1783 63.1875 73.8706C63.2488 73.6615 63.3413 73.4498 63.4026 73.2408C63.4874 72.9356 63.5748 72.6616 63.6284 72.3589C63.6897 72.1499 63.7198 71.9434 63.7499 71.7368C63.7892 71.4511 63.8597 71.1628 63.8679 70.8796C63.8837 70.6899 63.8995 70.5003 63.9153 70.3106C63.9234 70.0275 63.9627 69.7417 63.9565 69.4754C63.958 69.3026 63.9478 69.1779 63.9493 69.0051C63.9344 68.4413 63.9077 67.9255 63.8498 67.4123C63.8396 67.2876 63.8125 67.1486 63.8022 67.0238C63.7674 66.7913 63.7352 66.5899 63.6861 66.3742C63.6589 66.2352 63.6293 66.0649 63.6021 65.9259C63.5556 65.7414 63.5259 65.5712 63.4794 65.3866C63.4522 65.2476 63.4083 65.0943 63.3668 64.9721C63.3228 64.8188 63.2814 64.6966 63.2543 64.5576C63.2129 64.4354 63.1883 64.3276 63.1469 64.2054C63.1223 64.0975 63.0835 64.0066 63.0615 63.9299C63.0369 63.822 63.0006 63.7622 62.9617 63.6713C62.9423 63.6258 62.9229 63.5803 62.9034 63.5348C62.8646 63.4438 62.8451 63.3983 62.8451 63.3983C76.385 66.0058 77.3718 61.9695 80.7353 54.0023C81.0102 53.3362 81.2994 52.6532 81.6341 51.9508C83.4107 47.9751 84.973 46.1673 86.4229 44.9024C87.2422 44.1759 88.0288 43.6247 88.8077 42.98C88.8792 42.8956 88.9988 42.823 89.0872 42.753C89.1874 42.6349 89.307 42.5623 89.4072 42.4442C89.5073 42.3261 89.6244 42.2223 89.7557 42.1016C89.8416 42.0004 89.9417 41.8823 90.0276 41.781C90.1564 41.6292 90.2852 41.4774 90.414 41.3255C90.4998 41.2243 90.6 41.1062 90.6858 41.005C90.8432 40.8194 90.9669 40.6052 91.1218 40.3884C91.2076 40.2872 91.2766 40.1717 91.3456 40.0561C91.3599 40.0393 91.3885 40.0055 91.4028 39.9886C91.5955 39.6589 91.8024 39.3123 92.0043 38.9033C94.0211 34.9864 86.5351 32.321 76.5751 33.359C75.5799 33.4722 74.5704 33.6022 73.5179 33.7828C71.4442 34.1415 69.2897 34.6638 67.1337 35.3589C66.0486 35.7149 64.966 36.102 63.8885 36.5516C63.357 36.7679 62.8111 37.0011 62.2821 37.2486C60.6782 37.9768 59.0676 38.8154 57.5154 39.7905L57.4868 39.8242C56.7692 40.2599 56.1114 40.6592 55.4536 41.0586C55.2885 41.1506 55.1403 41.257 54.9752 41.349C54.346 41.7146 53.748 42.0776 53.1643 42.4238C53.059 42.4796 52.9706 42.5496 52.8796 42.5885C52.37 42.8815 51.8748 43.1576 51.4107 43.4311C51.3054 43.4869 51.1858 43.5595 51.0805 43.6152C50.5709 43.9082 50.09 44.1675 49.6233 44.4098C49.518 44.4656 49.4127 44.5213 49.3074 44.5771C48.9006 44.7831 48.4937 44.9892 48.1324 45.1759C48.0726 45.2122 48.0271 45.2316 47.9673 45.2679C47.5604 45.474 47.1822 45.6463 46.8351 45.8161C46.7442 45.8549 46.6532 45.8938 46.5622 45.9327C46.2151 46.1025 45.8824 46.2553 45.5783 46.3745C45.5497 46.4083 45.5185 46.4108 45.4873 46.4134C45.2144 46.53 44.9414 46.6466 44.6971 46.7294C44.6373 46.7657 44.5606 46.7877 44.5151 46.8072C44.2565 46.9069 44.0122 46.9897 43.799 47.07C43.7535 47.0895 43.7081 47.1089 43.6457 47.114C43.4469 47.1774 43.2792 47.2383 43.109 47.268C43.0947 47.2849 43.0323 47.29 43.0011 47.2925C42.8166 47.3391 42.6633 47.3831 42.4931 47.4128C42.4619 47.4153 42.4164 47.4348 42.3852 47.4373C42.2462 47.4644 42.1071 47.4915 41.9824 47.5018C41.8577 47.512 41.733 47.5223 41.6394 47.53C41.6394 47.53 41.6083 47.5325 41.5771 47.5351C41.4835 47.5428 41.4043 47.5336 41.3251 47.5244C41.2458 47.5152 41.1978 47.5035 41.1329 47.4774C41.0991 47.4488 41.0199 47.4396 40.9861 47.411C40.8537 47.3277 40.8292 47.2198 40.8123 47.2055C41.9624 46.8756 42.9636 46.0714 43.4638 44.9002C43.8859 43.9238 43.878 42.8728 43.5491 41.9267C46.959 41.0187 52.5252 39.039 56.0035 35.1432C56.2325 34.8733 56.216 34.4822 55.9461 34.2533C55.6762 34.0243 55.2851 34.0408 55.0562 34.3107C51.721 38.0377 46.1496 39.9552 42.9217 40.7854C42.5157 40.238 41.9759 39.7801 41.2929 39.4909C40.4632 39.1353 39.5799 39.0823 38.7626 39.2593C37.1667 36.4553 34.4764 30.8376 34.9125 25.6379C34.9467 25.2898 34.6859 24.9816 34.3378 24.9474C33.9897 24.9132 33.6815 25.174 33.6473 25.5221C33.1888 31.0218 35.8556 36.7357 37.5604 39.7191C36.8259 40.1404 36.2198 40.7866 35.8499 41.6332C35.3497 42.8044 35.4547 44.0828 35.9977 45.1526C35.9691 45.1863 35.9093 45.2226 35.8638 45.242C35.8638 45.242 35.8638 45.242 35.847 45.2277C35.7963 45.1848 35.7314 45.1587 35.6639 45.1015C35.6471 45.0872 35.6302 45.0729 35.5965 45.0443C35.5458 45.0013 35.4784 44.9441 35.394 44.8725C35.3603 44.8439 35.3265 44.8153 35.2902 44.7555C35.2227 44.6983 35.167 44.593 35.0801 44.4903C35.0294 44.4473 35.01 44.4018 34.9737 44.342C34.8842 44.2081 34.8091 44.0573 34.717 43.8923C34.6833 43.8636 34.6638 43.8181 34.6444 43.7727C34.5161 43.5478 34.402 43.306 34.2517 43.0044C34.2154 42.9446 34.1934 42.868 34.1714 42.7913C34.0574 42.5495 33.9576 42.2909 33.841 42.018C33.7996 41.8958 33.7582 41.7736 33.6999 41.6372C33.5833 41.3642 33.4784 41.0432 33.3736 40.7222C33.3153 40.5858 33.2882 40.4467 33.2299 40.3103C33.0836 39.8671 32.9204 39.4096 32.769 38.9041C32.7496 38.8586 32.7445 38.7963 32.7082 38.7365C32.5348 38.1543 32.342 37.5266 32.144 36.8366C32.0975 36.652 32.0509 36.4675 32.0044 36.283C31.8673 35.7606 31.7108 35.1927 31.5685 34.608C31.5 34.3468 31.4315 34.0856 31.3772 33.8075C31.235 33.2228 31.0877 32.5757 30.9403 31.9285C30.8861 31.6505 30.8175 31.3893 30.7464 31.0969C30.5254 30.1262 30.3019 29.1244 30.0706 28.029C28.9389 22.6599 26.7947 17.7664 24.2585 13.6427C23.4235 12.2673 22.517 10.9763 21.6038 9.79567C21.024 9.04283 20.4493 8.35234 19.8603 7.67873C19.5127 7.26782 19.1675 6.88809 18.8081 6.52523C13.5001 0.949882 8.18155 -1.12448 6.94978 2.41406C6.79856 2.86596 6.67596 3.28412 6.56766 3.68541C6.53242 3.82957 6.51148 3.95686 6.47367 4.06983C6.41493 4.31009 6.35876 4.58153 6.31433 4.80491C6.27909 4.94907 6.27503 5.09066 6.23978 5.23482C6.20966 5.44134 6.19385 5.63098 6.17804 5.82063C6.17398 5.96222 6.1556 6.1207 6.15154 6.26229C6.15004 6.43507 6.14598 6.57666 6.14447 6.74943C6.14041 6.89103 6.15322 7.04693 6.14916 7.18853C6.1594 7.31325 6.15278 7.42366 6.16303 7.54838C6.23069 8.56304 6.35559 9.51021 6.41407 10.6041C6.49366 12.5281 6.24925 14.9026 4.58563 18.916C4.28469 19.6471 3.99549 20.3301 3.70374 20.9818C0.244095 28.9255 -2.01257 32.407 9.21112 40.4471C9.21112 40.4471 9.18251 40.4809 9.10583 40.5029C9.02916 40.5249 8.92386 40.5806 8.78739 40.6389C8.78739 40.6389 8.7874 40.6389 8.77309 40.6558C7.48761 41.2479 3.8142 43.1507 1.67925 46.9675C-0.0469078 50.0287 -0.744365 54.3395 1.69499 60.1505C1.90619 60.6197 2.10308 61.1058 2.34803 61.6036C2.59297 62.1015 2.84966 62.5512 3.12066 62.9841C3.12066 62.9841 3.12066 62.9841 3.13753 62.9985C3.39166 63.4171 3.6744 63.8019 3.98577 64.153C12.0313 73.8198 29.1364 59.2616 31.9739 56.7369L26.8647 70.0114C26.6185 70.6437 26.9294 71.3716 27.5474 71.6347C28.1824 71.9121 28.9128 71.6324 29.2071 71.0118L35.4414 57.6763C35.4414 57.6763 35.6144 86.338 50.6974 83.4665C50.6974 83.4665 50.7286 83.4639 50.7597 83.4614C51.2535 83.358 51.7616 83.2378 52.2983 83.0838L52.3024 82.9422Z" fill="#55B76B"/>
</svg>
