<svg width="500" height="462" viewBox="0 0 500 462" fill="none" xmlns="http://www.w3.org/2000/svg">
<g opacity="0.4">
<path d="M325.597 132.664C325.597 132.664 375.028 168.86 370.169 206.09C365.309 243.32 285.177 244.89 310.709 254.061C336.241 263.232 377.104 228.241 377.104 228.241C377.104 228.241 391.706 238.802 380.483 290.949C369.238 343.085 275.209 319.598 275.209 319.598C186.459 454.273 139.608 337.1 139.553 322.678C139.497 308.257 213.163 306.271 207.842 298.328C202.541 290.397 161.567 310.769 136.431 306.108C111.295 301.447 85.2382 231.6 91.1749 212.625C97.1116 193.651 159.308 245.003 158.934 224.04C158.561 203.077 76.4919 220.561 92.9405 148.629C109.389 76.697 104.883 85.0932 136.319 137.317C167.733 189.528 209.286 167.819 182.304 152.749C82.4698 96.9744 151.365 10.3631 151.365 10.3631C270.529 53.9797 219.143 146.376 234.887 145.037C250.599 143.706 221.643 42.2187 241.146 60.4328C260.65 78.647 290.609 57.4321 310.589 96.4734C330.558 135.536 265.958 197.915 291.833 207.913C317.707 217.911 325.618 132.676 325.618 132.676L325.597 132.664ZM179.867 247.892C159.863 243.209 143.574 250.002 146.082 260.863C148.59 271.723 189.122 270.2 189.122 270.2C203.007 264.643 199.882 252.554 179.867 247.892ZM258.957 169.915C242.391 187.402 240.921 196.409 242.271 204.327C242.271 204.327 264.668 196.256 268.867 180.355C273.077 164.433 275.545 152.44 258.957 169.915ZM310.414 277.17C298.011 282.003 283.725 283.656 291.277 293.061C291.277 293.061 312.779 301.566 321.411 290.43C330.055 279.272 322.816 272.338 310.414 277.17Z" fill="#B7D331"/>
<path d="M367.783 461.329C367.783 461.329 246.794 335.501 161.947 37.4498" stroke="#02604D" stroke-width="0.5" stroke-linecap="round" stroke-linejoin="round"/>
</g>
</svg>
