<svg width="118" height="109" viewBox="0 0 118 109" fill="none" xmlns="http://www.w3.org/2000/svg">
<path d="M40.5388 43.4475C42.2589 45.4973 52.2629 57.7549 53.3637 66.9583C43.2221 99.4388 72.6423 109 72.6423 109C77.1833 95.6281 75.4633 82.834 69.8489 75.1851C66.2024 70.2188 61.0284 66.4631 57.8084 64.4133C56.5149 58.4427 52.7307 51.9906 49.4282 47.2169C51.0106 47.7947 52.5931 48.3588 54.2444 48.8678C64.8125 52.0732 72.147 55.2511 77.2934 58.0713C74.8991 83.8796 117.502 93.7847 117.502 93.7847C116.621 88.7771 122.359 77.7852 109.08 64.0281C99.448 54.0542 87.2974 54.068 81.3253 54.8246C76.6742 52.1007 70.2893 49.1154 61.4274 46.1026C63.0925 45.7312 64.6887 45.3184 66.051 44.8782C96.5445 60.011 108.613 32.4556 108.613 32.4556C76.6604 15.9058 65.6932 34.3541 62.9686 40.7786C59.0193 41.8379 53.6664 42.6771 51.8638 42.9385C40.2223 38.7976 30.4798 32.5794 22.8839 26.43C25.7048 26.2786 28.9936 25.8934 32.0072 25.013C57.6845 35.5922 74.0872 5.9044 74.0872 5.9044C42.5341 -11.6221 29.833 14.8465 27.3561 21.1197C23.2142 21.7938 19.0585 21.7388 17.3384 21.67C8.738 13.7597 4.07315 7.08751 3.97682 6.94994L0 9.67384C0.44034 10.3204 6.42621 18.8636 17.3246 28.1771C18.3842 30.0618 23.1179 38.7838 23.4481 46.1301C3.78417 64.3995 33.6585 98.2282 33.6585 98.2282L36.617 77.3174C38.7499 62.1984 32.1173 51.688 28.2643 47.0106C28.2781 42.8697 27.0947 38.4261 25.6773 34.6567C30.0945 37.7796 35.0758 40.7786 40.5526 43.4337L40.5388 43.4475Z" fill="#8BD2A0"/>
</svg>
